<?xml version="1.0" encoding="utf-8"?>
<!-- Generator: Adobe Illustrator 24.1.0, SVG Export Plug-In . SVG Version: 6.00 Build 0)  -->
<svg version="1.1" id="Layer_1" xmlns="http://www.w3.org/2000/svg" xmlns:xlink="http://www.w3.org/1999/xlink" x="0px" y="0px"
	 width="634px" height="152.1px" viewBox="0 0 634 152.1" style="enable-background:new 0 0 634 152.1;" xml:space="preserve">
<style type="text/css">
	.st0{fill:#424A52;}
	.st1{fill:#0085CA;}
</style>
<g>
	<g>
		<g>
			<path class="st0" d="M204.6,103.7c-6.7,6-13.6,8.7-22.4,8.7c-17.7,0-30.8-13.1-30.8-30.8c0-18.3,12.8-31.4,30.9-31.4
				c8.7,0,15.8,3,23.2,9.7L195,69.5c-3.5-3.5-7.3-5.2-11.9-5.2c-8.8,0-15.3,7.2-15.3,16.7c0,9.9,6.7,17.1,16,17.1
				c4.1,0,7.2-1.3,11.3-4.9L204.6,103.7z"/>
			<path class="st0" d="M261.6,52.2V89c0,8.5-1.8,13.3-6.5,17.3c-4.6,3.9-11.2,6-18.8,6c-8,0-15-2.3-19.5-6.4
				c-4.1-3.8-6.2-9.3-6.2-17V52.2h16V88c0,6.5,3.9,10.9,9.7,10.9c5.9,0,9.4-3.8,9.4-9.9V52.2L261.6,52.2L261.6,52.2z"/>
			<path class="st0" d="M285.2,110.4h-16V27.9h16v31.3c5.5-6.4,10.9-9,18.8-9c17.1,0,29.3,13.1,29.3,31.4
				c0,18.2-11.6,30.8-28.5,30.8c-8.8,0-14.4-2.8-19.6-9.6L285.2,110.4L285.2,110.4z M284.9,81.7c0,10.4,6.4,17.7,15.6,17.7
				c9.3,0,15.8-7.3,15.8-17.7c0-10.3-6.7-18.1-15.5-18.1C292,63.6,284.9,71.7,284.9,81.7z"/>
			<path class="st0" d="M355.7,85.1c1.4,8,7.3,13.1,15.2,13.1c5.9,0,10.9-2.9,13.4-7.5l14.7,4c-5.8,11.3-16,17.7-28.3,17.7
				c-18.5,0-31.7-13.1-31.7-31.2c0-18.2,12.7-31,30.7-31c18.6,0,31.5,13.1,31.5,31.8l-0.1,3.1H355.7z M384.8,75.9
				c-1.4-7.7-6.9-12.3-14.8-12.3c-7.7,0-12.8,4.4-14.3,12.3H384.8z"/>
			<path class="st0" d="M493.2,52.2l-19,58.2h-16.6l-10.2-35.7L437,110.4h-17l-18.7-58.2h16.2l11.7,35.4l10.2-35.4h15.3l10.4,35.4
				l11.8-35.4C476.9,52.2,493.2,52.2,493.2,52.2z"/>
			<path class="st0" d="M514.4,110.4h-16V52.2h16V110.4L514.4,110.4z"/>
			<path class="st0" d="M552.6,69v-1c0-3.5-3.1-6-7.4-6c-3.9,0-6.4,2.1-6.4,5.3c0,1.5,0.6,3,1.6,3.8c1.8,1.4,1.9,1.4,9.9,3.9
				c13.1,4,18.2,9.2,18.2,18.6c0,11.3-9,18.8-22.6,18.8c-13.8,0-22.2-7-22.9-19.1h15.3c0.8,5,3,7.3,7.7,7.3c3.8,0,6.4-2.3,6.4-5.5
				c0-3.5-2.3-5.2-10.8-7.8c-12.6-3.8-18.2-9.4-18.2-18.6c0-11.1,8.9-18.5,22.5-18.5c13.3,0,21.4,7,21.7,18.8
				C567.7,69,552.6,69,552.6,69z"/>
			<path class="st0" d="M588.4,85.1c1.4,8,7.3,13.1,15.2,13.1c5.9,0,10.9-2.9,13.4-7.5l14.7,4c-5.8,11.3-16,17.7-28.3,17.7
				c-18.5,0-31.7-13.1-31.7-31.2c0-18.2,12.7-31,30.7-31c18.6,0,31.5,13.1,31.5,31.8l-0.1,3.1H588.4z M617.5,75.9
				c-1.4-7.7-6.9-12.3-14.8-12.3c-7.7,0-12.8,4.4-14.3,12.3H617.5z"/>
		</g>
		<rect x="498.2" y="27.4" class="st0" width="16.5" height="16.5"/>
	</g>
	<path class="st1" d="M0,116V11.2c0-6.1,4.9-11,11-11h104.8c6.3,0,11.3,5.1,11.3,11.3v104.3c0,6.4-5.1,11.5-11.5,11.5H11.4
		C5.1,127.4,0,122.3,0,116z M90.9,36.6L90.8,73h18.1V18.4H54.5v18.3L90.9,36.6z M36.3,91.2l0.1-36.4H18.2v54.6h54.5V91.1L36.3,91.2z
		 M36.5,36.6V18.4H18.2v18.2H36.5z M72.7,72.9V54.7H54.4v18.2C54.4,72.9,72.7,72.9,72.7,72.9z M109.1,109.3V91H90.8v18.2H109.1z"/>
</g>
</svg>
