<svg id="Layer_1" data-name="Layer 1" xmlns="http://www.w3.org/2000/svg" xmlns:xlink="http://www.w3.org/1999/xlink" viewBox="0 0 364.08 89.55"><defs><style>.cls-1{fill:#fbb040;}.cls-2{fill:#00aeef;}.cls-3{fill:url(#linear-gradient);}.cls-4{fill:url(#linear-gradient-2);}.cls-5{fill:url(#linear-gradient-3);}.cls-6{fill:url(#linear-gradient-4);}.cls-7{fill:url(#linear-gradient-5);}.cls-8{fill:url(#linear-gradient-6);}.cls-9{fill:url(#linear-gradient-7);}.cls-10{fill:url(#linear-gradient-8);}.cls-11{fill:url(#linear-gradient-9);}.cls-12{fill:url(#linear-gradient-10);}.cls-13{fill:url(#linear-gradient-11);}.cls-14{fill:url(#linear-gradient-12);}.cls-15{fill:url(#linear-gradient-13);}.cls-16{fill:url(#linear-gradient-14);}.cls-17{fill:url(#linear-gradient-15);}</style><linearGradient id="linear-gradient" x1="22.92" y1="38.58" x2="36.51" y2="38.58" gradientUnits="userSpaceOnUse"><stop offset="0" stop-color="#00aeef"/><stop offset="0.15" stop-color="#01a9ea"/><stop offset="0.32" stop-color="#059cdc"/><stop offset="0.51" stop-color="#0b85c5"/><stop offset="0.7" stop-color="#1465a5"/><stop offset="0.89" stop-color="#1f3c7c"/><stop offset="1" stop-color="#262262"/></linearGradient><linearGradient id="linear-gradient-2" x1="60.5" y1="31.87" x2="69.78" y2="31.87" xlink:href="#linear-gradient"/><linearGradient id="linear-gradient-3" x1="39.3" y1="65.06" x2="47.3" y2="65.06" xlink:href="#linear-gradient"/><linearGradient id="linear-gradient-4" x1="64.27" y1="42.58" x2="83.57" y2="42.58" xlink:href="#linear-gradient"/><linearGradient id="linear-gradient-5" x1="50.11" y1="60.82" x2="78.63" y2="60.82" xlink:href="#linear-gradient"/><linearGradient id="linear-gradient-6" x1="28.47" y1="38.58" x2="42.06" y2="38.58" xlink:href="#linear-gradient"/><linearGradient id="linear-gradient-7" x1="66.05" y1="31.87" x2="75.33" y2="31.87" xlink:href="#linear-gradient"/><linearGradient id="linear-gradient-8" x1="44.84" y1="65.06" x2="52.84" y2="65.06" xlink:href="#linear-gradient"/><linearGradient id="linear-gradient-9" x1="69.82" y1="42.58" x2="89.12" y2="42.58" xlink:href="#linear-gradient"/><linearGradient id="linear-gradient-10" x1="55.65" y1="60.82" x2="84.17" y2="60.82" xlink:href="#linear-gradient"/><linearGradient id="linear-gradient-11" x1="33.95" y1="38.58" x2="47.54" y2="38.58" xlink:href="#linear-gradient"/><linearGradient id="linear-gradient-12" x1="71.53" y1="31.87" x2="80.8" y2="31.87" xlink:href="#linear-gradient"/><linearGradient id="linear-gradient-13" x1="50.32" y1="65.06" x2="58.32" y2="65.06" xlink:href="#linear-gradient"/><linearGradient id="linear-gradient-14" x1="75.3" y1="42.58" x2="94.6" y2="42.58" xlink:href="#linear-gradient"/><linearGradient id="linear-gradient-15" x1="61.13" y1="60.82" x2="89.65" y2="60.82" xlink:href="#linear-gradient"/></defs><title>Final logos</title><path class="cls-1" d="M109.59,11.89h25.65a42.19,42.19,0,0,1,14,2A22.67,22.67,0,0,1,158,19a17.44,17.44,0,0,1,4.36,7.1,25.71,25.71,0,0,1,1.22,7.66A24.82,24.82,0,0,1,161,45.55a20,20,0,0,1-8.51,8l14.7,30.72H150.85L138.69,57.11h-14.2V84.28h-14.9Zm26.66,32.64a19.13,19.13,0,0,0,5.88-.76,8.92,8.92,0,0,0,3.7-2.13,7.09,7.09,0,0,0,1.88-3.29,16.59,16.59,0,0,0,.51-4.26,11.48,11.48,0,0,0-.61-3.7,7.69,7.69,0,0,0-2.08-3.14,9.81,9.81,0,0,0-4.06-2.13,23.47,23.47,0,0,0-6.54-.76H124.49V44.53Z"/><path class="cls-1" d="M167.13,31.35h14.2V64.41c0,3.78.67,6.34,2,7.65a7.66,7.66,0,0,0,5.58,2,10.86,10.86,0,0,0,4.51-.81,12.66,12.66,0,0,0,3.4-2.33,10.86,10.86,0,0,0,2.59-3.4,9.73,9.73,0,0,0,1-4.31V31.35h14.19V84.28H200.79V77a20.66,20.66,0,0,1-7.35,6.79,18.75,18.75,0,0,1-8.77,2.13q-9,0-13.28-4.71t-4.26-14.86Z"/><path class="cls-1" d="M231.36,67.45q.7,4.67,3.75,6.08a17.07,17.07,0,0,0,7.3,1.42c3.38,0,5.79-.42,7.25-1.26a4.41,4.41,0,0,0,2.18-4.11A5.15,5.15,0,0,0,250.47,66c-.91-1-2.66-1.72-5.22-2.13L238,62.68q-9.64-1.51-14.35-5.22t-4.72-11.2a14,14,0,0,1,1.68-6.9,15.24,15.24,0,0,1,4.71-5.17,23.58,23.58,0,0,1,7.25-3.29,34.62,34.62,0,0,1,9.28-1.17A37.27,37.27,0,0,1,252.34,31a20.41,20.41,0,0,1,7,3.4,13.94,13.94,0,0,1,4.06,5.07,25.55,25.55,0,0,1,2,6.28l-12.67,1.62a9.23,9.23,0,0,0-3.2-5.37q-2.28-1.72-7.35-1.72a20.63,20.63,0,0,0-4.71.45,9.54,9.54,0,0,0-2.94,1.17,4.23,4.23,0,0,0-1.52,1.62,3.79,3.79,0,0,0-.46,1.72A4.32,4.32,0,0,0,234,49c1.05.77,3.09,1.43,6.14,2L246.87,52a46.71,46.71,0,0,1,9.23,2.33,17.67,17.67,0,0,1,5.83,3.5,11.19,11.19,0,0,1,3,4.92,22.9,22.9,0,0,1,.86,6.59,14.56,14.56,0,0,1-5.68,12q-5.68,4.52-17.54,4.51a45.7,45.7,0,0,1-9.07-.86,22.6,22.6,0,0,1-7.71-3,17.23,17.23,0,0,1-5.58-5.68,18.86,18.86,0,0,1-2.48-8.92Z"/><path class="cls-1" d="M269.52,11.89h14.2V38.05a19.87,19.87,0,0,1,7.3-6.29,19.64,19.64,0,0,1,8.72-2q9,0,13.38,4.72t4.36,14.85v35h-14.2V51.23c0-3.72-.71-6.25-2.12-7.61a7.92,7.92,0,0,0-5.68-2,12.42,12.42,0,0,0-4.72.82,12.92,12.92,0,0,0-3.7,2.33,12.35,12.35,0,0,0-2.38,3.39,9.76,9.76,0,0,0-1,4.31V84.28h-14.2Z"/><path class="cls-2" d="M322.41,25h-21.8V11.89h58.81V25h-21.8V84.28H322.41Z"/><path class="cls-2" d="M342,30.4h14.24v9.51H342Zm.2,14.49H356V84.28H342.17Z"/><path class="cls-3" d="M24.08,44.38a3.37,3.37,0,0,1-1.16,1.39l.78.35a3.32,3.32,0,0,0,4.36-1.67L34,31H36.4l.11-.29H30.14Z"/><path class="cls-4" d="M66.61,37.45h3.17l-6.7-11.16a14.36,14.36,0,0,1-2.58,1Z"/><path class="cls-5" d="M43.64,56.2V67.63a6.73,6.73,0,0,1-4.34,6.28h1.4a6.61,6.61,0,0,0,6.6-6.6V60.68Z"/><path class="cls-6" d="M80.28,37.63h-2a3.37,3.37,0,0,1,2.28,3.18v3.35a3.36,3.36,0,0,1-3.35,3.35H64.27v0h16a3.31,3.31,0,0,0,3.29-3.3v-3.3A3.31,3.31,0,0,0,80.28,37.63Z"/><path class="cls-7" d="M53.66,48.22,56.4,40l-2.28-3.8-4,12L74.35,77.86a5,5,0,0,1-.7,7.08,7.25,7.25,0,0,1-.67.46,5.49,5.49,0,0,0,.7,0,5,5,0,0,0,3.83-8.08Z"/><path class="cls-2" d="M57.47,4.66A10.06,10.06,0,0,1,54.33,24a10,10,0,0,0,2.86.42,9.89,9.89,0,0,0,.28-19.78Z"/><path class="cls-8" d="M29.62,44.38a3.35,3.35,0,0,1-1.15,1.39l.78.35a3.31,3.31,0,0,0,4.35-1.67l6-13.41H42l.11-.29H35.69Z"/><path class="cls-9" d="M72.15,37.45h3.18l-6.7-11.16a14.36,14.36,0,0,1-2.58,1Z"/><path class="cls-10" d="M49.18,56.2V67.63a6.71,6.71,0,0,1-4.34,6.28h1.41a6.6,6.6,0,0,0,6.59-6.6V60.68Z"/><path class="cls-11" d="M85.82,37.63h-2a3.37,3.37,0,0,1,2.29,3.18v3.35a3.37,3.37,0,0,1-3.36,3.35H69.82v0h16a3.32,3.32,0,0,0,3.3-3.3v-3.3A3.32,3.32,0,0,0,85.82,37.63Z"/><path class="cls-12" d="M59.21,48.22,61.94,40l-2.28-3.8-4,12L79.9,77.86a5,5,0,0,1-.71,7.08,6.11,6.11,0,0,1-.67.46,5.65,5.65,0,0,0,.71,0,4.94,4.94,0,0,0,3.82-8.08Z"/><path class="cls-2" d="M63,4.66A10.06,10.06,0,0,1,59.88,24,9.89,9.89,0,1,0,63,4.66Z"/><path class="cls-13" d="M35.1,44.38A3.35,3.35,0,0,1,34,45.77l.78.35a3.31,3.31,0,0,0,4.35-1.67l6-13.41h2.38l.11-.29H41.17Z"/><path class="cls-14" d="M77.63,37.45H80.8L74.1,26.29a14.26,14.26,0,0,1-2.57,1Z"/><path class="cls-15" d="M54.66,56.2V67.63a6.71,6.71,0,0,1-4.34,6.28h1.41a6.6,6.6,0,0,0,6.59-6.6V60.68Z"/><path class="cls-16" d="M91.3,37.63h-2a3.36,3.36,0,0,1,2.28,3.18v3.35a3.36,3.36,0,0,1-3.35,3.35H75.3v0h16a3.32,3.32,0,0,0,3.3-3.3v-3.3A3.32,3.32,0,0,0,91.3,37.63Z"/><path class="cls-17" d="M64.69,48.22,67.42,40l-2.28-3.8-4,12L85.38,77.86a5,5,0,0,1-.71,7.08,6.11,6.11,0,0,1-.67.46,5.52,5.52,0,0,0,.71,0,4.94,4.94,0,0,0,3.82-8.08Z"/><path class="cls-2" d="M68.5,4.66A10.06,10.06,0,0,1,65.36,24,9.89,9.89,0,1,0,68.5,4.66Z"/><path class="cls-1" d="M74.67,37.69H64.19L57.33,26.26a13.08,13.08,0,0,1-17.4-5.2H21.53L12.89,40.51a3.33,3.33,0,0,0,1.68,4.39l3,1.35A3.33,3.33,0,0,0,22,44.57L28,31h6.32L28.1,47.67V64.3H14.8a3.33,3.33,0,0,0-3.33,3.33V71a3.33,3.33,0,0,0,3.33,3.33h20a6.66,6.66,0,0,0,6.66-6.65V56.29l22.74,27.8a5,5,0,0,0,7.73-6.32l-24-29.4,4-11.92,6.74,11.22H74.67A3.32,3.32,0,0,0,78,44.35V41A3.33,3.33,0,0,0,74.67,37.69Z"/><circle class="cls-1" cx="51.38" cy="14.41" r="9.98"/></svg>