<?xml version="1.0" encoding="UTF-8"?><svg id="Layer_2" xmlns="http://www.w3.org/2000/svg" viewBox="0 0 235.88 235.88"><defs><style>.cls-1{fill:#6eabde;}</style></defs><path class="cls-1" d="M215.98,0H19.9C8.91,0,0,8.91,0,19.9v196.08c0,10.99,8.91,19.9,19.9,19.9h196.08c10.99,0,19.9-8.91,19.9-19.9V19.9c0-10.99-8.91-19.9-19.9-19.9ZM151.18,41.46c10.98,0,19.87,8.9,19.87,19.87s-8.9,19.87-19.87,19.87c-1.13,0-2.23-.12-3.31-.3,9.4-1.58,16.56-9.73,16.56-19.58s-7.17-18-16.56-19.58c1.08-.18,2.18-.3,3.31-.3ZM178.35,107.92l-21.44-.21-12.46-20.77c1.63-.41,3.24-.99,4.81-1.73l.6-.28,13.67,22.78,21.44.21c3.35.03,6.05,2.76,6.05,6.11v7.81c0,3.4-2.78,6.14-6.18,6.11l-5.73-.06c2.98-.41,5.28-2.95,5.28-6.04v-7.81c0-3.35-2.7-6.07-6.05-6.11ZM138.02,41.46c10.98,0,19.87,8.9,19.87,19.87s-8.9,19.87-19.87,19.87c-1.13,0-2.23-.12-3.31-.3,9.4-1.58,16.56-9.73,16.56-19.58s-7.17-18-16.56-19.58c1.08-.18,2.18-.3,3.31-.3ZM124.83,41.46c10.98,0,19.87,8.9,19.87,19.87s-8.9,19.87-19.87,19.87c-1.13,0-2.23-.12-3.31-.3,9.4-1.58,16.56-9.73,16.56-19.58s-7.17-18-16.56-19.58c1.08-.18,2.18-.3,3.31-.3ZM111.19,41.46c10.98,0,19.87,8.9,19.87,19.87s-8.9,19.87-19.87,19.87-19.87-8.9-19.87-19.87,8.9-19.87,19.87-19.87ZM190.19,201.74h0c-2.75,2.1-6.26,2.53-9.31,1.45.94-.34,1.85-.81,2.69-1.45,4.45-3.39,5.21-9.8,1.67-14.14l-47.76-58.62.42-1.26-6.51-.07-.44,1.33,47.77,58.62c3.54,4.34,2.78,10.75-1.67,14.14h0c-2.75,2.1-6.26,2.53-9.31,1.45.94-.34,1.85-.81,2.69-1.45,4.45-3.39,5.21-9.8,1.67-14.14l-47.76-58.62.7-2.1-4.23-7.04-3.05,9.14,47.77,58.62c3.54,4.34,2.78,10.75-1.67,14.14h0c-2.75,2.1-6.26,2.53-9.31,1.45.94-.34,1.85-.81,2.69-1.45,4.45-3.39,5.21-9.8,1.67-14.14l-47.76-58.62,5.41-16.24-4.51-7.51-7.92,23.75,47.76,58.62c3.54,4.34,2.78,10.75-1.67,14.14h0c-4.24,3.23-10.28,2.53-13.66-1.59l-16.24-19.75c-.67.11-1.35.18-2.05.18h-6.62c2.62,0,5.05-.78,7.09-2.1l-2.89-3.52c-2.36,3.39-6.28,5.62-10.73,5.62h-6.62c6.53,0,11.92-4.79,12.9-11.04l-6.4-7.78v5.74c0,7.22-5.85,13.07-13.07,13.07h-6.62c7.22,0,13.07-5.85,13.07-13.07v-13.8l-7.01-8.53v22.32c0,7.22-5.85,13.07-13.07,13.07h-39.69c-3.79,0-6.86-3.07-6.86-6.86v-6.16c0-3.79,3.07-6.86,6.86-6.86h26.26v-33.12l12.42-33.12h-12.59l-11.99,26.62c-1.71,3.8-6.22,5.44-9.97,3.63l-4.5-2.17c-3.61-1.74-5.19-6.04-3.55-9.7l17.1-38.26h36.65c6.85,11.86,21.66,16.48,34.04,10.63l.6-.28,13.67,22.78,10.25.1-.04-.07-3.19-.03-12.46-20.77c1.63-.41,3.24-.99,4.81-1.73l.6-.28,13.67,22.78,21.44.21c3.35.03,6.05,2.76,6.05,6.11v7.81c0,3.4-2.78,6.14-6.18,6.11l-5.73-.06c2.98-.41,5.28-2.95,5.28-6.04v-7.81c0-3.35-2.7-6.07-6.05-6.11l-18.25-.18.04.07,11.2.11c3.35.03,6.05,2.76,6.05,6.11v7.81c0,3.4-2.78,6.14-6.18,6.11l-13.52-.15-.4,1.19,47.77,58.62c3.54,4.34,2.78,10.75-1.67,14.14ZM204.18,121.83c0,3.4-2.78,6.14-6.18,6.11l-5.73-.06c2.98-.41,5.28-2.95,5.28-6.04v-7.81c0-3.35-2.7-6.07-6.05-6.11l-21.44-.21-12.46-20.77c1.63-.41,3.24-.99,4.81-1.73l.6-.28,13.67,22.78,21.44.21c3.35.03,6.05,2.76,6.05,6.11v7.81Z"/></svg>