<?xml version="1.0" encoding="UTF-8"?><svg id="Layer_2" xmlns="http://www.w3.org/2000/svg" viewBox="0 0 809.52 235.88"><defs><style>.cls-1{fill:#6eabde;}</style></defs><path class="cls-1" d="M215.98,0H19.9C8.91,0,0,8.91,0,19.9v196.08c0,10.99,8.91,19.9,19.9,19.9h196.08c10.99,0,19.9-8.91,19.9-19.9V19.9c0-10.99-8.91-19.9-19.9-19.9ZM151.18,41.46c10.98,0,19.87,8.9,19.87,19.87s-8.9,19.87-19.87,19.87c-1.13,0-2.23-.12-3.31-.3,9.4-1.58,16.56-9.73,16.56-19.58s-7.17-18-16.56-19.58c1.08-.18,2.18-.3,3.31-.3ZM178.35,107.92l-21.44-.21-12.46-20.77c1.63-.41,3.24-.99,4.81-1.73l.6-.28,13.67,22.78,21.44.21c3.35.03,6.05,2.76,6.05,6.11v7.81c0,3.4-2.78,6.14-6.18,6.11l-5.73-.06c2.98-.41,5.28-2.95,5.28-6.04v-7.81c0-3.35-2.7-6.07-6.05-6.11ZM138.02,41.46c10.98,0,19.87,8.9,19.87,19.87s-8.9,19.87-19.87,19.87c-1.13,0-2.23-.12-3.31-.3,9.4-1.58,16.56-9.73,16.56-19.58s-7.17-18-16.56-19.58c1.08-.18,2.18-.3,3.31-.3ZM124.83,41.46c10.98,0,19.87,8.9,19.87,19.87s-8.9,19.87-19.87,19.87c-1.13,0-2.23-.12-3.31-.3,9.4-1.58,16.56-9.73,16.56-19.58s-7.17-18-16.56-19.58c1.08-.18,2.18-.3,3.31-.3ZM111.19,41.46c10.98,0,19.87,8.9,19.87,19.87s-8.9,19.87-19.87,19.87-19.87-8.9-19.87-19.87,8.9-19.87,19.87-19.87ZM190.19,201.74h0c-2.75,2.1-6.26,2.53-9.31,1.45.94-.34,1.85-.81,2.69-1.45,4.45-3.39,5.21-9.8,1.67-14.14l-47.76-58.62.42-1.26-6.51-.07-.44,1.33,47.77,58.62c3.54,4.34,2.78,10.75-1.67,14.14h0c-2.75,2.1-6.26,2.53-9.31,1.45.94-.34,1.85-.81,2.69-1.45,4.45-3.39,5.21-9.8,1.67-14.14l-47.76-58.62.7-2.1-4.23-7.04-3.05,9.14,47.77,58.62c3.54,4.34,2.78,10.75-1.67,14.14h0c-2.75,2.1-6.26,2.53-9.31,1.45.94-.34,1.85-.81,2.69-1.45,4.45-3.39,5.21-9.8,1.67-14.14l-47.76-58.62,5.41-16.24-4.51-7.51-7.92,23.75,47.76,58.62c3.54,4.34,2.78,10.75-1.67,14.14h0c-4.24,3.23-10.28,2.53-13.66-1.59l-16.24-19.75c-.67.11-1.35.18-2.05.18h-6.62c2.62,0,5.05-.78,7.09-2.1l-2.89-3.52c-2.36,3.39-6.28,5.62-10.73,5.62h-6.62c6.53,0,11.92-4.79,12.9-11.04l-6.4-7.78v5.74c0,7.22-5.85,13.07-13.07,13.07h-6.62c7.22,0,13.07-5.85,13.07-13.07v-13.8l-7.01-8.53v22.32c0,7.22-5.85,13.07-13.07,13.07h-39.69c-3.79,0-6.86-3.07-6.86-6.86v-6.16c0-3.79,3.07-6.86,6.86-6.86h26.26v-33.12l12.42-33.12h-12.59l-11.99,26.62c-1.71,3.8-6.22,5.44-9.97,3.63l-4.5-2.17c-3.61-1.74-5.19-6.04-3.55-9.7l17.1-38.26h36.65c6.85,11.86,21.66,16.48,34.04,10.63l.6-.28,13.67,22.78,10.25.1-.04-.07-3.19-.03-12.46-20.77c1.63-.41,3.24-.99,4.81-1.73l.6-.28,13.67,22.78,21.44.21c3.35.03,6.05,2.76,6.05,6.11v7.81c0,3.4-2.78,6.14-6.18,6.11l-5.73-.06c2.98-.41,5.28-2.95,5.28-6.04v-7.81c0-3.35-2.7-6.07-6.05-6.11l-18.25-.18.04.07,11.2.11c3.35.03,6.05,2.76,6.05,6.11v7.81c0,3.4-2.78,6.14-6.18,6.11l-13.52-.15-.4,1.19,47.77,58.62c3.54,4.34,2.78,10.75-1.67,14.14ZM204.18,121.83c0,3.4-2.78,6.14-6.18,6.11l-5.73-.06c2.98-.41,5.28-2.95,5.28-6.04v-7.81c0-3.35-2.7-6.07-6.05-6.11l-21.44-.21-12.46-20.77c1.63-.41,3.24-.99,4.81-1.73l.6-.28,13.67,22.78,21.44.21c3.35.03,6.05,2.76,6.05,6.11v7.81Z"/><path class="cls-1" d="M363.22,177.89l-30-53.01v53.01h-33.29V40.83h44.38c17.94,0,31.37,3.43,40.27,10.27,9.86,7.54,14.79,19.11,14.79,34.73,0,20.82-8.84,34.73-26.51,41.71l30.21,50.34h-39.86ZM333.22,68.16v38.01h10.69c6.85,0,12.19-1.64,16.03-4.93,3.83-3.29,5.75-7.94,5.75-13.97s-1.82-10.38-5.45-13.87c-3.63-3.49-8.39-5.24-14.28-5.24h-12.74Z"/><path class="cls-1" d="M467.61,142.54v-59.8h31.23v59.8c0,13.43-3.77,23.22-11.3,29.38-8.08,6.44-18.9,9.66-32.47,9.66-14.79,0-26.1-3.49-33.9-10.48-6.99-5.89-10.48-15.41-10.48-28.56v-59.8h31.23v57.54c0,10.27,4.38,15.41,13.15,15.41,3.97,0,7.05-1.16,9.25-3.49,2.19-2.33,3.29-5.55,3.29-9.66Z"/><path class="cls-1" d="M580.83,110.9h-28.97v-1.85c0-2.19-.86-4.01-2.57-5.45-1.71-1.44-3.87-2.16-6.47-2.16-3.56-.13-5.89,1.3-6.99,4.31-1.37,3.56.13,6.44,4.52,8.63,1.64.82,3.63,1.44,5.96,1.85,13.29,3.84,22.67,8.22,28.15,13.15,5.48,4.93,8.22,11.58,8.22,19.93,0,9.73-3.53,17.54-10.58,23.43-7.06,5.89-16.41,8.83-28.05,8.83s-20.89-2.84-27.74-8.53c-6.85-5.68-10.41-13.53-10.68-23.53h29.59c.68,3.56,1.68,6.06,2.98,7.5,1.3,1.44,3.25,2.16,5.86,2.16,2.05,0,3.77-.65,5.14-1.95,1.37-1.3,2.05-2.91,2.05-4.83,0-2.19-1.06-4.01-3.19-5.45-2.12-1.44-6.34-3.19-12.64-5.24-10.41-3.29-17.98-7.43-22.71-12.43-4.73-5-7.09-11.27-7.09-18.8,0-9.45,3.52-17.06,10.58-22.81,7.05-5.75,16.34-8.63,27.84-8.63s20.31,2.81,26.82,8.42c6.5,5.62,9.83,13.43,9.97,23.43Z"/><path class="cls-1" d="M591.31,40.83h31.23v50.75c7.12-8.35,15.34-12.54,24.66-12.54s16.78,2.95,23.22,8.84c6.03,5.48,9.04,14.73,9.04,27.74v62.26h-31.23v-57.12c0-4.79-1.13-8.63-3.39-11.51-2.26-2.88-5.31-4.31-9.14-4.31-4.11,0-7.33,1.37-9.66,4.11-2.33,2.74-3.49,6.65-3.49,11.71v57.12h-31.23V40.83Z"/><path class="cls-1" d="M753.84,67.75h-31.44v110.14h-33.29v-110.14h-31.64v-26.92h96.37v26.92Z"/><path class="cls-1" d="M763.09,40.83h33.29v137.06h-33.29V40.83Z"/></svg>